<svg xmlns="http://www.w3.org/2000/svg" xmlns:xlink="http://www.w3.org/1999/xlink" width="304" zoomAndPan="magnify" viewBox="0 0 228 227.999995" height="304" preserveAspectRatio="xMidYMid meet" version="1.0"><defs><g/><clipPath id="8804fa2cc1"><path d="M 0 0 L 227.714844 0 L 227.714844 227.714844 L 0 227.714844 Z M 0 0 " clip-rule="nonzero"/></clipPath><clipPath id="f4494ef114"><path d="M 113.859375 0 C 50.976562 0 0 50.976562 0 113.859375 C 0 176.738281 50.976562 227.714844 113.859375 227.714844 C 176.738281 227.714844 227.714844 176.738281 227.714844 113.859375 C 227.714844 50.976562 176.738281 0 113.859375 0 Z M 113.859375 0 " clip-rule="nonzero"/></clipPath><clipPath id="4331166b62"><path d="M 21.328125 109.367188 L 30.3125 109.367188 L 30.3125 118.347656 L 21.328125 118.347656 Z M 21.328125 109.367188 " clip-rule="nonzero"/></clipPath><clipPath id="ce87e79f1e"><path d="M 25.820312 109.367188 C 23.339844 109.367188 21.328125 111.378906 21.328125 113.859375 C 21.328125 116.339844 23.339844 118.347656 25.820312 118.347656 C 28.300781 118.347656 30.3125 116.339844 30.3125 113.859375 C 30.3125 111.378906 28.300781 109.367188 25.820312 109.367188 Z M 25.820312 109.367188 " clip-rule="nonzero"/></clipPath><clipPath id="2479ec39af"><path d="M 195.101562 109.367188 L 204.085938 109.367188 L 204.085938 118.347656 L 195.101562 118.347656 Z M 195.101562 109.367188 " clip-rule="nonzero"/></clipPath><clipPath id="5c11bf887f"><path d="M 199.59375 109.367188 C 197.113281 109.367188 195.101562 111.378906 195.101562 113.859375 C 195.101562 116.339844 197.113281 118.347656 199.59375 118.347656 C 202.074219 118.347656 204.085938 116.339844 204.085938 113.859375 C 204.085938 111.378906 202.074219 109.367188 199.59375 109.367188 Z M 199.59375 109.367188 " clip-rule="nonzero"/></clipPath><clipPath id="e85159aea2"><path d="M 113.195312 114 L 114.210938 114 L 114.210938 192 L 113.195312 192 Z M 113.195312 114 " clip-rule="nonzero"/></clipPath><clipPath id="b3c326eb53"><path d="M 113.195312 36 L 114.210938 36 L 114.210938 113 L 113.195312 113 Z M 113.195312 36 " clip-rule="nonzero"/></clipPath><clipPath id="bc3271bacf"><path d="M 114 113.414062 L 191 113.414062 L 191 114.429688 L 114 114.429688 Z M 114 113.414062 " clip-rule="nonzero"/></clipPath><clipPath id="839cfb9c0c"><path d="M 36 113.414062 L 114 113.414062 L 114 114.429688 L 36 114.429688 Z M 36 113.414062 " clip-rule="nonzero"/></clipPath><clipPath id="36860af17b"><path d="M 108.394531 108.613281 L 118.542969 108.613281 L 118.542969 118.765625 L 108.394531 118.765625 Z M 108.394531 108.613281 " clip-rule="nonzero"/></clipPath></defs><g clip-path="url(#8804fa2cc1)"><g clip-path="url(#f4494ef114)"><path fill="#ffd935" d="M 0 0 L 227.714844 0 L 227.714844 227.714844 L 0 227.714844 Z M 0 0 " fill-opacity="1" fill-rule="nonzero"/></g></g><g fill="#000000" fill-opacity="1"><g transform="translate(33.704112, 103.682544)"><g><path d="M -3.828125 -13.234375 C -2.421875 -12.929688 -1.304688 -12.410156 -0.484375 -11.671875 C 0.335938 -10.929688 0.878906 -10.003906 1.140625 -8.890625 C 1.398438 -7.785156 1.378906 -6.519531 1.078125 -5.09375 L 0.328125 -1.5625 L -12.109375 -4.1875 L -11.28125 -8.09375 C -11.007812 -9.394531 -10.539062 -10.472656 -9.875 -11.328125 C -9.207031 -12.191406 -8.363281 -12.796875 -7.34375 -13.140625 C -6.332031 -13.484375 -5.160156 -13.515625 -3.828125 -13.234375 Z M -4.328125 -10.46875 C -5.242188 -10.65625 -6.03125 -10.679688 -6.6875 -10.546875 C -7.34375 -10.410156 -7.863281 -10.109375 -8.25 -9.640625 C -8.632812 -9.171875 -8.910156 -8.550781 -9.078125 -7.78125 L -9.375 -6.375 L -1.296875 -4.671875 L -1.0625 -5.796875 C -0.789062 -7.085938 -0.925781 -8.113281 -1.46875 -8.875 C -2.019531 -9.644531 -2.972656 -10.175781 -4.328125 -10.46875 Z M -4.328125 -10.46875 "/></g></g></g><g fill="#000000" fill-opacity="1"><g transform="translate(36.484201, 90.456918)"><g><path d="M -1.015625 -14.5625 C -0.0976562 -14.195312 0.679688 -13.753906 1.328125 -13.234375 C 1.984375 -12.710938 2.488281 -12.109375 2.84375 -11.421875 C 3.195312 -10.742188 3.375 -9.992188 3.375 -9.171875 C 3.375 -8.359375 3.179688 -7.472656 2.796875 -6.515625 C 2.410156 -5.546875 1.929688 -4.765625 1.359375 -4.171875 C 0.796875 -3.585938 0.15625 -3.175781 -0.5625 -2.9375 C -1.289062 -2.695312 -2.070312 -2.613281 -2.90625 -2.6875 C -3.75 -2.757812 -4.625 -2.976562 -5.53125 -3.34375 C -6.75 -3.832031 -7.734375 -4.457031 -8.484375 -5.21875 C -9.234375 -5.988281 -9.691406 -6.894531 -9.859375 -7.9375 C -10.023438 -8.976562 -9.847656 -10.140625 -9.328125 -11.421875 C -8.816406 -12.703125 -8.144531 -13.648438 -7.3125 -14.265625 C -6.476562 -14.890625 -5.523438 -15.21875 -4.453125 -15.25 C -3.378906 -15.289062 -2.234375 -15.0625 -1.015625 -14.5625 Z M -4.484375 -5.953125 C -3.660156 -5.628906 -2.910156 -5.453125 -2.234375 -5.421875 C -1.554688 -5.390625 -0.96875 -5.523438 -0.46875 -5.828125 C 0.03125 -6.140625 0.421875 -6.648438 0.703125 -7.359375 C 0.992188 -8.066406 1.066406 -8.703125 0.921875 -9.265625 C 0.773438 -9.835938 0.445312 -10.34375 -0.0625 -10.78125 C -0.582031 -11.226562 -1.253906 -11.613281 -2.078125 -11.9375 C -3.304688 -12.4375 -4.367188 -12.597656 -5.265625 -12.421875 C -6.160156 -12.242188 -6.820312 -11.628906 -7.25 -10.578125 C -7.53125 -9.867188 -7.597656 -9.226562 -7.453125 -8.65625 C -7.316406 -8.082031 -6.992188 -7.570312 -6.484375 -7.125 C -5.972656 -6.675781 -5.304688 -6.285156 -4.484375 -5.953125 Z M -4.484375 -5.953125 "/></g></g></g><g fill="#000000" fill-opacity="1"><g transform="translate(41.726807, 77.080419)"><g><path d="M -1.203125 -21.375 L 7.671875 -11.703125 L 5.984375 -9.140625 L -0.5625 -11.359375 C -0.675781 -11.390625 -0.859375 -11.453125 -1.109375 -11.546875 C -1.359375 -11.648438 -1.628906 -11.757812 -1.921875 -11.875 C -2.210938 -11.988281 -2.488281 -12.097656 -2.75 -12.203125 C -3.007812 -12.316406 -3.210938 -12.414062 -3.359375 -12.5 C -3.234375 -12.382812 -3.070312 -12.226562 -2.875 -12.03125 C -2.675781 -11.84375 -2.460938 -11.640625 -2.234375 -11.421875 C -2.015625 -11.210938 -1.804688 -11.007812 -1.609375 -10.8125 C -1.421875 -10.613281 -1.273438 -10.457031 -1.171875 -10.34375 L 3.453125 -5.28125 L 1.78125 -2.71875 L -10.640625 -6.96875 L -9.1875 -9.1875 L -2.484375 -6.75 C -2.296875 -6.675781 -2.0625 -6.582031 -1.78125 -6.46875 C -1.5 -6.363281 -1.207031 -6.25 -0.90625 -6.125 C -0.601562 -6.007812 -0.316406 -5.890625 -0.046875 -5.765625 C 0.210938 -5.640625 0.445312 -5.523438 0.65625 -5.421875 C 0.46875 -5.578125 0.265625 -5.753906 0.046875 -5.953125 C -0.171875 -6.148438 -0.390625 -6.351562 -0.609375 -6.5625 C -0.828125 -6.78125 -1.03125 -6.984375 -1.21875 -7.171875 C -1.40625 -7.359375 -1.554688 -7.519531 -1.671875 -7.65625 L -6.609375 -13.109375 L -5.21875 -15.234375 L 1.765625 -12.875 C 1.910156 -12.832031 2.109375 -12.757812 2.359375 -12.65625 C 2.617188 -12.5625 2.890625 -12.453125 3.171875 -12.328125 C 3.460938 -12.210938 3.742188 -12.09375 4.015625 -11.96875 C 4.285156 -11.851562 4.519531 -11.742188 4.71875 -11.640625 C 4.5 -11.835938 4.234375 -12.082031 3.921875 -12.375 C 3.609375 -12.664062 3.300781 -12.957031 3 -13.25 C 2.707031 -13.539062 2.460938 -13.789062 2.265625 -14 L -2.65625 -19.15625 Z M -1.203125 -21.375 "/></g></g></g><g fill="#000000" fill-opacity="1"><g transform="translate(51.380322, 62.62502)"><g><path d="M 9.046875 -9.15625 L 6.640625 -6.71875 L -4.09375 -9.5625 L -4.140625 -9.5 C -3.835938 -9.21875 -3.535156 -8.941406 -3.234375 -8.671875 C -2.929688 -8.410156 -2.628906 -8.144531 -2.328125 -7.875 C -2.035156 -7.601562 -1.734375 -7.332031 -1.421875 -7.0625 L 2.828125 -2.859375 L 1.125 -1.140625 L -7.921875 -10.078125 L -5.53125 -12.5 L 5.140625 -9.71875 L 5.171875 -9.765625 C 4.878906 -10.035156 4.585938 -10.300781 4.296875 -10.5625 C 4.003906 -10.832031 3.71875 -11.097656 3.4375 -11.359375 C 3.15625 -11.617188 2.867188 -11.878906 2.578125 -12.140625 L -1.703125 -16.375 L 0 -18.09375 Z M 9.046875 -9.15625 "/></g></g></g><g fill="#000000" fill-opacity="1"><g transform="translate(61.991002, 52.175766)"><g><path d="M 1.28125 -0.9375 L -6.25 -11.1875 L -4.0625 -12.796875 L 2.140625 -4.34375 L 6.296875 -7.390625 L 7.625 -5.59375 Z M 1.28125 -0.9375 "/></g></g></g><g fill="#000000" fill-opacity="1"><g transform="translate(70.384696, 45.854222)"><g><path d="M 8.75 -11.6875 C 9.195312 -10.820312 9.492188 -9.976562 9.640625 -9.15625 C 9.796875 -8.332031 9.785156 -7.546875 9.609375 -6.796875 C 9.441406 -6.054688 9.085938 -5.375 8.546875 -4.75 C 8.015625 -4.125 7.289062 -3.578125 6.375 -3.109375 C 5.445312 -2.628906 4.578125 -2.351562 3.765625 -2.28125 C 2.953125 -2.207031 2.191406 -2.3125 1.484375 -2.59375 C 0.773438 -2.882812 0.128906 -3.332031 -0.453125 -3.9375 C -1.046875 -4.539062 -1.566406 -5.273438 -2.015625 -6.140625 C -2.617188 -7.304688 -2.953125 -8.421875 -3.015625 -9.484375 C -3.085938 -10.554688 -2.847656 -11.539062 -2.296875 -12.4375 C -1.742188 -13.34375 -0.851562 -14.113281 0.375 -14.75 C 1.59375 -15.382812 2.722656 -15.660156 3.765625 -15.578125 C 4.804688 -15.503906 5.742188 -15.128906 6.578125 -14.453125 C 7.410156 -13.785156 8.132812 -12.863281 8.75 -11.6875 Z M 0.5 -7.421875 C 0.90625 -6.640625 1.351562 -6.015625 1.84375 -5.546875 C 2.34375 -5.085938 2.878906 -4.8125 3.453125 -4.71875 C 4.023438 -4.632812 4.648438 -4.769531 5.328125 -5.125 C 6.003906 -5.46875 6.472656 -5.898438 6.734375 -6.421875 C 7.003906 -6.953125 7.085938 -7.550781 6.984375 -8.21875 C 6.890625 -8.882812 6.640625 -9.609375 6.234375 -10.390625 C 5.617188 -11.578125 4.910156 -12.394531 4.109375 -12.84375 C 3.316406 -13.300781 2.414062 -13.269531 1.40625 -12.75 C 0.726562 -12.394531 0.257812 -11.953125 0 -11.421875 C -0.257812 -10.898438 -0.34375 -10.300781 -0.25 -9.625 C -0.164062 -8.957031 0.0820312 -8.222656 0.5 -7.421875 Z M 0.5 -7.421875 "/></g></g></g><g fill="#000000" fill-opacity="1"><g transform="translate(83.330375, 39.286716)"><g><path d="M 8.953125 -2.84375 L 7.140625 -5.453125 L 2.71875 -4.046875 L 2.765625 -0.875 L 0 0 L 0.390625 -13.53125 L 3.546875 -14.53125 L 11.71875 -3.734375 Z M 5.828125 -7.40625 L 4.0625 -9.953125 C 3.945312 -10.117188 3.796875 -10.332031 3.609375 -10.59375 C 3.421875 -10.851562 3.234375 -11.125 3.046875 -11.40625 C 2.859375 -11.695312 2.703125 -11.941406 2.578125 -12.140625 C 2.597656 -11.910156 2.613281 -11.613281 2.625 -11.25 C 2.632812 -10.882812 2.640625 -10.535156 2.640625 -10.203125 C 2.648438 -9.867188 2.660156 -9.632812 2.671875 -9.5 L 2.671875 -6.390625 Z M 5.828125 -7.40625 "/></g></g></g><g fill="#000000" fill-opacity="1"><g transform="translate(95.412085, 35.435277)"><g><path d="M 11.09375 -8.171875 C 11.300781 -6.742188 11.203125 -5.515625 10.796875 -4.484375 C 10.390625 -3.460938 9.707031 -2.632812 8.75 -2 C 7.789062 -1.375 6.59375 -0.957031 5.15625 -0.75 L 1.578125 -0.234375 L -0.25 -12.8125 L 3.703125 -13.390625 C 5.023438 -13.578125 6.203125 -13.503906 7.234375 -13.171875 C 8.273438 -12.847656 9.128906 -12.269531 9.796875 -11.4375 C 10.460938 -10.601562 10.894531 -9.515625 11.09375 -8.171875 Z M 8.328125 -7.6875 C 8.191406 -8.613281 7.941406 -9.359375 7.578125 -9.921875 C 7.222656 -10.492188 6.757812 -10.878906 6.1875 -11.078125 C 5.613281 -11.285156 4.9375 -11.332031 4.15625 -11.21875 L 2.734375 -11.015625 L 3.921875 -2.84375 L 5.0625 -3 C 6.363281 -3.195312 7.28125 -3.679688 7.8125 -4.453125 C 8.351562 -5.234375 8.523438 -6.3125 8.328125 -7.6875 Z M 8.328125 -7.6875 "/></g></g></g><g fill="#000000" fill-opacity="1"><g transform="translate(109.139125, 33.731195)"><g/></g></g><g fill="#000000" fill-opacity="1"><g transform="translate(114.315632, 33.213972)"><g><path d="M 6.9375 0.796875 L 5.03125 -9.453125 L 4.953125 -9.46875 C 4.929688 -9.238281 4.90625 -8.882812 4.875 -8.40625 C 4.851562 -7.925781 4.820312 -7.414062 4.78125 -6.875 C 4.75 -6.332031 4.707031 -5.851562 4.65625 -5.4375 L 3.984375 0.453125 L 1.578125 0.1875 L 3.03125 -12.453125 L 6.6875 -12.03125 L 8.578125 -2.015625 L 8.625 -2.015625 L 12.90625 -11.328125 L 16.546875 -10.90625 L 15.09375 1.734375 L 12.609375 1.453125 L 13.296875 -4.515625 C 13.335938 -4.921875 13.394531 -5.382812 13.46875 -5.90625 C 13.539062 -6.425781 13.613281 -6.914062 13.6875 -7.375 C 13.769531 -7.84375 13.832031 -8.191406 13.875 -8.421875 L 13.796875 -8.4375 L 9.390625 1.078125 Z M 6.9375 0.796875 "/></g></g></g><g fill="#000000" fill-opacity="1"><g transform="translate(131.245649, 35.439383)"><g><path d="M 7.484375 -5.578125 L 11.515625 -9.828125 L 14.296875 -8.984375 L 8.015625 -2.765625 L 6.59375 1.984375 L 4.046875 1.21875 L 5.4375 -3.4375 L 3.65625 -12.1875 L 6.453125 -11.34375 Z M 7.484375 -5.578125 "/></g></g></g><g fill="#000000" fill-opacity="1"><g transform="translate(142.526763, 39.050569)"><g/></g></g><g fill="#000000" fill-opacity="1"><g transform="translate(147.519519, 40.987236)"><g><path d="M 10.859375 -8.5 C 11.859375 -7.9375 12.613281 -7.347656 13.125 -6.734375 C 13.632812 -6.128906 13.910156 -5.488281 13.953125 -4.8125 C 14.003906 -4.144531 13.820312 -3.4375 13.40625 -2.6875 C 13.125 -2.1875 12.78125 -1.800781 12.375 -1.53125 C 11.976562 -1.257812 11.546875 -1.078125 11.078125 -0.984375 C 10.617188 -0.898438 10.160156 -0.878906 9.703125 -0.921875 L 10.265625 5.75 L 7.65625 4.28125 L 7.375 -1.453125 L 6.125 -2.15625 L 3.75 2.09375 L 1.390625 0.78125 L 7.609375 -10.3125 Z M 9.578125 -6.65625 L 8.875 -7.0625 L 7.203125 -4.078125 L 7.96875 -3.640625 C 8.738281 -3.210938 9.363281 -3.035156 9.84375 -3.109375 C 10.332031 -3.179688 10.71875 -3.472656 11 -3.984375 C 11.289062 -4.503906 11.316406 -4.972656 11.078125 -5.390625 C 10.847656 -5.804688 10.347656 -6.226562 9.578125 -6.65625 Z M 9.578125 -6.65625 "/></g></g></g><g fill="#000000" fill-opacity="1"><g transform="translate(158.181925, 47.067798)"><g><path d="M 7.09375 5.421875 L 1.265625 0.96875 L 8.984375 -9.140625 L 14.8125 -4.6875 L 13.46875 -2.921875 L 9.796875 -5.734375 L 8.109375 -3.53125 L 11.53125 -0.921875 L 10.1875 0.84375 L 6.765625 -1.765625 L 4.78125 0.828125 L 8.453125 3.640625 Z M 7.09375 5.421875 "/></g></g></g><g fill="#000000" fill-opacity="1"><g transform="translate(166.552818, 53.514047)"><g><path d="M 8.9375 3.921875 C 8.414062 4.453125 7.828125 4.785156 7.171875 4.921875 C 6.523438 5.066406 5.847656 5 5.140625 4.71875 C 4.429688 4.4375 3.722656 3.945312 3.015625 3.25 C 2.691406 2.925781 2.398438 2.597656 2.140625 2.265625 C 1.890625 1.929688 1.671875 1.585938 1.484375 1.234375 C 1.296875 0.878906 1.132812 0.519531 1 0.15625 L 2.765625 -1.609375 C 3.003906 -1.003906 3.273438 -0.394531 3.578125 0.21875 C 3.890625 0.832031 4.269531 1.363281 4.71875 1.8125 C 5.03125 2.113281 5.328125 2.316406 5.609375 2.421875 C 5.890625 2.535156 6.144531 2.5625 6.375 2.5 C 6.601562 2.445312 6.8125 2.328125 7 2.140625 C 7.21875 1.921875 7.328125 1.648438 7.328125 1.328125 C 7.335938 1.015625 7.28125 0.65625 7.15625 0.25 C 7.03125 -0.144531 6.878906 -0.585938 6.703125 -1.078125 C 6.585938 -1.390625 6.472656 -1.738281 6.359375 -2.125 C 6.253906 -2.507812 6.195312 -2.910156 6.1875 -3.328125 C 6.175781 -3.753906 6.242188 -4.179688 6.390625 -4.609375 C 6.535156 -5.046875 6.816406 -5.472656 7.234375 -5.890625 C 7.765625 -6.429688 8.34375 -6.769531 8.96875 -6.90625 C 9.59375 -7.039062 10.234375 -6.984375 10.890625 -6.734375 C 11.554688 -6.484375 12.203125 -6.046875 12.828125 -5.421875 C 13.296875 -4.953125 13.6875 -4.453125 14 -3.921875 C 14.320312 -3.390625 14.617188 -2.796875 14.890625 -2.140625 L 12.78125 -1.265625 C 12.53125 -1.847656 12.285156 -2.347656 12.046875 -2.765625 C 11.816406 -3.179688 11.53125 -3.5625 11.1875 -3.90625 C 10.945312 -4.144531 10.703125 -4.304688 10.453125 -4.390625 C 10.210938 -4.484375 9.976562 -4.503906 9.75 -4.453125 C 9.53125 -4.398438 9.332031 -4.285156 9.15625 -4.109375 C 8.945312 -3.898438 8.828125 -3.65625 8.796875 -3.375 C 8.773438 -3.101562 8.820312 -2.769531 8.9375 -2.375 C 9.0625 -1.988281 9.222656 -1.519531 9.421875 -0.96875 C 9.660156 -0.289062 9.828125 0.320312 9.921875 0.875 C 10.015625 1.4375 9.992188 1.960938 9.859375 2.453125 C 9.722656 2.953125 9.414062 3.441406 8.9375 3.921875 Z M 8.9375 3.921875 "/></g></g></g><g fill="#000000" fill-opacity="1"><g transform="translate(173.916639, 60.695963)"><g><path d="M 17.328125 2.046875 L 10.71875 6.9375 C 10.007812 7.457031 9.257812 7.769531 8.46875 7.875 C 7.675781 7.988281 6.878906 7.851562 6.078125 7.46875 C 5.285156 7.09375 4.539062 6.429688 3.84375 5.484375 C 2.832031 4.128906 2.410156 2.835938 2.578125 1.609375 C 2.753906 0.390625 3.40625 -0.632812 4.53125 -1.46875 L 11.125 -6.34375 L 12.71875 -4.1875 L 6.46875 0.4375 C 5.625 1.0625 5.160156 1.671875 5.078125 2.265625 C 4.992188 2.859375 5.203125 3.492188 5.703125 4.171875 C 6.054688 4.648438 6.421875 4.972656 6.796875 5.140625 C 7.179688 5.316406 7.59375 5.351562 8.03125 5.25 C 8.476562 5.144531 8.96875 4.894531 9.5 4.5 L 15.734375 -0.109375 Z M 17.328125 2.046875 "/></g></g></g><g fill="#000000" fill-opacity="1"><g transform="translate(182.179334, 71.625867)"><g><path d="M 3.015625 6.296875 L 10.671875 -0.765625 L 10.640625 -0.828125 C 10.453125 -0.722656 10.144531 -0.554688 9.71875 -0.328125 C 9.300781 -0.0976562 8.851562 0.144531 8.375 0.40625 C 7.894531 0.664062 7.460938 0.882812 7.078125 1.0625 L 1.734375 3.625 L 0.6875 1.4375 L 12.15625 -4.046875 L 13.734375 -0.734375 L 6.265625 6.1875 L 6.28125 6.234375 L 16.453125 4.921875 L 18.03125 8.21875 L 6.5625 13.703125 L 5.484375 11.4375 L 10.90625 8.84375 C 11.269531 8.664062 11.6875 8.46875 12.15625 8.25 C 12.632812 8.039062 13.09375 7.84375 13.53125 7.65625 C 13.976562 7.476562 14.304688 7.347656 14.515625 7.265625 L 14.484375 7.1875 L 4.078125 8.53125 Z M 3.015625 6.296875 "/></g></g></g><g fill="#000000" fill-opacity="1"><g transform="translate(189.279714, 87.195632)"><g><path d="M 2.421875 8.578125 L 0.4375 1.53125 L 12.671875 -1.9375 L 14.65625 5.109375 L 12.53125 5.71875 L 11.28125 1.28125 L 8.59375 2.046875 L 9.765625 6.1875 L 7.640625 6.78125 L 6.46875 2.640625 L 3.328125 3.53125 L 4.578125 7.96875 Z M 2.421875 8.578125 "/></g></g></g><g fill="#000000" fill-opacity="1"><g transform="translate(192.037328, 97.585068)"><g/></g></g><g fill="#000000" fill-opacity="1"><g transform="translate(192.979131, 103.113242)"><g/></g></g><g fill="#000000" fill-opacity="1"><g transform="translate(193.532342, 108.693721)"><g/></g></g><g fill="#000000" fill-opacity="1"><g transform="translate(193.694208, 114.299217)"><g/></g></g><g fill="#000000" fill-opacity="1"><g transform="translate(193.46395, 119.902328)"><g/></g></g><g fill="#000000" fill-opacity="1"><g transform="translate(192.842713, 125.475634)"><g/></g></g><g fill="#000000" fill-opacity="1"><g transform="translate(192.131281, 130.738214)"><g><path d="M 2.671875 13.515625 C 1.296875 13.097656 0.234375 12.484375 -0.515625 11.671875 C -1.273438 10.867188 -1.734375 9.898438 -1.890625 8.765625 C -2.054688 7.640625 -1.929688 6.378906 -1.515625 4.984375 L -0.46875 1.53125 L 11.703125 5.21875 L 10.546875 9.046875 C 10.160156 10.316406 9.597656 11.351562 8.859375 12.15625 C 8.128906 12.957031 7.242188 13.484375 6.203125 13.734375 C 5.160156 13.984375 3.984375 13.910156 2.671875 13.515625 Z M 3.421875 10.796875 C 4.328125 11.066406 5.109375 11.160156 5.765625 11.078125 C 6.429688 11.003906 6.976562 10.75 7.40625 10.3125 C 7.832031 9.882812 8.160156 9.289062 8.390625 8.53125 L 8.796875 7.15625 L 0.890625 4.75 L 0.5625 5.859375 C 0.175781 7.117188 0.222656 8.15625 0.703125 8.96875 C 1.191406 9.78125 2.097656 10.390625 3.421875 10.796875 Z M 3.421875 10.796875 "/></g></g></g><g fill="#000000" fill-opacity="1"><g transform="translate(188.228214, 143.672114)"><g><path d="M -0.25 14.59375 C -1.125 14.15625 -1.859375 13.644531 -2.453125 13.0625 C -3.054688 12.476562 -3.507812 11.835938 -3.8125 11.140625 C -4.113281 10.441406 -4.226562 9.679688 -4.15625 8.859375 C -4.09375 8.035156 -3.828125 7.164062 -3.359375 6.25 C -2.890625 5.320312 -2.34375 4.585938 -1.71875 4.046875 C -1.101562 3.515625 -0.425781 3.15625 0.3125 2.96875 C 1.0625 2.789062 1.847656 2.773438 2.671875 2.921875 C 3.503906 3.066406 4.359375 3.363281 5.234375 3.8125 C 6.398438 4.394531 7.320312 5.097656 8 5.921875 C 8.6875 6.753906 9.066406 7.691406 9.140625 8.734375 C 9.222656 9.785156 8.953125 10.929688 8.328125 12.171875 C 7.703125 13.398438 6.945312 14.285156 6.0625 14.828125 C 5.175781 15.378906 4.195312 15.625 3.125 15.5625 C 2.050781 15.507812 0.925781 15.1875 -0.25 14.59375 Z M 3.953125 6.3125 C 3.160156 5.914062 2.425781 5.671875 1.75 5.578125 C 1.070312 5.492188 0.476562 5.582031 -0.03125 5.84375 C -0.550781 6.113281 -0.984375 6.585938 -1.328125 7.265625 C -1.671875 7.941406 -1.796875 8.566406 -1.703125 9.140625 C -1.617188 9.722656 -1.335938 10.257812 -0.859375 10.75 C -0.390625 11.238281 0.238281 11.679688 1.03125 12.078125 C 2.21875 12.679688 3.265625 12.929688 4.171875 12.828125 C 5.078125 12.722656 5.789062 12.164062 6.3125 11.15625 C 6.65625 10.476562 6.78125 9.847656 6.6875 9.265625 C 6.601562 8.691406 6.328125 8.15625 5.859375 7.65625 C 5.390625 7.164062 4.753906 6.71875 3.953125 6.3125 Z M 3.953125 6.3125 "/></g></g></g><g fill="#000000" fill-opacity="1"><g transform="translate(181.858149, 156.559553)"><g><path d="M -0.640625 21.40625 L -8.640625 11 L -6.75 8.59375 L -0.40625 11.34375 C -0.289062 11.40625 -0.117188 11.492188 0.109375 11.609375 C 0.347656 11.722656 0.609375 11.847656 0.890625 11.984375 C 1.179688 12.128906 1.445312 12.265625 1.6875 12.390625 C 1.9375 12.523438 2.132812 12.640625 2.28125 12.734375 C 2.15625 12.617188 2.003906 12.457031 1.828125 12.25 C 1.648438 12.039062 1.457031 11.816406 1.25 11.578125 C 1.039062 11.335938 0.847656 11.113281 0.671875 10.90625 C 0.503906 10.707031 0.375 10.539062 0.28125 10.40625 L -3.90625 4.96875 L -2 2.5625 L 10 7.859375 L 8.359375 9.953125 L 1.90625 6.9375 C 1.707031 6.84375 1.472656 6.726562 1.203125 6.59375 C 0.941406 6.46875 0.664062 6.328125 0.375 6.171875 C 0.0820312 6.023438 -0.1875 5.878906 -0.4375 5.734375 C -0.695312 5.597656 -0.914062 5.46875 -1.09375 5.34375 C -0.9375 5.507812 -0.757812 5.703125 -0.5625 5.921875 C -0.363281 6.148438 -0.164062 6.375 0.03125 6.59375 C 0.238281 6.820312 0.425781 7.039062 0.59375 7.25 C 0.769531 7.457031 0.910156 7.628906 1.015625 7.765625 L 5.46875 13.640625 L 3.890625 15.640625 L -2.84375 12.6875 C -2.988281 12.625 -3.179688 12.53125 -3.421875 12.40625 C -3.671875 12.28125 -3.9375 12.144531 -4.21875 12 C -4.5 11.863281 -4.769531 11.722656 -5.03125 11.578125 C -5.289062 11.441406 -5.507812 11.3125 -5.6875 11.1875 C -5.488281 11.414062 -5.242188 11.6875 -4.953125 12 C -4.671875 12.3125 -4.394531 12.625 -4.125 12.9375 C -3.851562 13.257812 -3.628906 13.535156 -3.453125 13.765625 L 1 19.3125 Z M -0.640625 21.40625 "/></g></g></g><g fill="#000000" fill-opacity="1"><g transform="translate(171.001437, 170.132218)"><g><path d="M -9.796875 8.34375 L -7.1875 6.125 L 3.265625 9.875 L 3.328125 9.828125 C 3.035156 9.523438 2.75 9.222656 2.46875 8.921875 C 2.195312 8.628906 1.925781 8.332031 1.65625 8.03125 C 1.382812 7.738281 1.101562 7.453125 0.8125 7.171875 L -3.0625 2.609375 L -1.21875 1.03125 L 7.03125 10.71875 L 4.4375 12.9375 L -5.953125 9.25 L -5.984375 9.28125 C -5.722656 9.570312 -5.457031 9.859375 -5.1875 10.140625 C -4.914062 10.429688 -4.648438 10.722656 -4.390625 11.015625 C -4.128906 11.304688 -3.867188 11.597656 -3.609375 11.890625 L 0.296875 16.46875 L -1.546875 18.03125 Z M -9.796875 8.34375 "/></g></g></g><g fill="#000000" fill-opacity="1"><g transform="translate(159.534564, 179.62751)"><g><path d="M -1.359375 0.828125 L 5.265625 11.6875 L 2.953125 13.09375 L -2.515625 4.140625 L -6.921875 6.828125 L -8.078125 4.921875 Z M -1.359375 0.828125 "/></g></g></g><g fill="#000000" fill-opacity="1"><g transform="translate(150.630053, 185.205516)"><g><path d="M -9.703125 10.90625 C -10.078125 10 -10.304688 9.128906 -10.390625 8.296875 C -10.472656 7.460938 -10.394531 6.679688 -10.15625 5.953125 C -9.925781 5.222656 -9.515625 4.570312 -8.921875 4 C -8.335938 3.425781 -7.570312 2.941406 -6.625 2.546875 C -5.65625 2.148438 -4.757812 1.945312 -3.9375 1.9375 C -3.125 1.925781 -2.375 2.097656 -1.6875 2.453125 C -1.007812 2.804688 -0.40625 3.304688 0.125 3.953125 C 0.65625 4.609375 1.109375 5.390625 1.484375 6.296875 C 1.984375 7.515625 2.21875 8.65625 2.1875 9.71875 C 2.164062 10.789062 1.84375 11.75 1.21875 12.59375 C 0.59375 13.4375 -0.359375 14.125 -1.640625 14.65625 C -2.910156 15.175781 -4.0625 15.351562 -5.09375 15.1875 C -6.125 15.03125 -7.023438 14.582031 -7.796875 13.84375 C -8.566406 13.113281 -9.203125 12.132812 -9.703125 10.90625 Z M -1.125 7.359375 C -1.46875 6.546875 -1.863281 5.882812 -2.3125 5.375 C -2.769531 4.875 -3.28125 4.550781 -3.84375 4.40625 C -4.414062 4.269531 -5.054688 4.347656 -5.765625 4.640625 C -6.460938 4.929688 -6.960938 5.328125 -7.265625 5.828125 C -7.578125 6.328125 -7.710938 6.914062 -7.671875 7.59375 C -7.628906 8.269531 -7.4375 9.015625 -7.09375 9.828125 C -6.59375 11.054688 -5.960938 11.925781 -5.203125 12.4375 C -4.441406 12.957031 -3.539062 13.003906 -2.5 12.578125 C -1.789062 12.285156 -1.28125 11.890625 -0.96875 11.390625 C -0.664062 10.890625 -0.53125 10.300781 -0.5625 9.625 C -0.601562 8.945312 -0.789062 8.191406 -1.125 7.359375 Z M -1.125 7.359375 "/></g></g></g><g fill="#000000" fill-opacity="1"><g transform="translate(137.168866, 190.646851)"><g><path d="M -9.15625 2.078125 L -7.59375 4.828125 L -3.0625 3.796875 L -2.828125 0.640625 L 0 0 L -1.5625 13.4375 L -4.78125 14.171875 L -12 2.71875 Z M -6.453125 6.875 L -4.90625 9.5625 C -4.800781 9.75 -4.664062 9.976562 -4.5 10.25 C -4.34375 10.53125 -4.179688 10.816406 -4.015625 11.109375 C -3.859375 11.410156 -3.726562 11.671875 -3.625 11.890625 C -3.613281 11.648438 -3.59375 11.34375 -3.5625 10.96875 C -3.539062 10.601562 -3.519531 10.253906 -3.5 9.921875 C -3.488281 9.597656 -3.476562 9.375 -3.46875 9.25 L -3.21875 6.15625 Z M -6.453125 6.875 "/></g></g></g><g fill="#000000" fill-opacity="1"><g transform="translate(124.801642, 193.446138)"><g><path d="M -11.765625 7.1875 C -11.847656 5.757812 -11.640625 4.550781 -11.140625 3.5625 C -10.648438 2.570312 -9.898438 1.800781 -8.890625 1.25 C -7.878906 0.707031 -6.644531 0.394531 -5.1875 0.3125 L -1.59375 0.09375 L -0.84375 12.796875 L -4.828125 13.03125 C -6.160156 13.113281 -7.328125 12.945312 -8.328125 12.53125 C -9.335938 12.113281 -10.140625 11.457031 -10.734375 10.5625 C -11.335938 9.675781 -11.679688 8.550781 -11.765625 7.1875 Z M -8.953125 6.9375 C -8.898438 7.875 -8.71875 8.640625 -8.40625 9.234375 C -8.101562 9.828125 -7.671875 10.25 -7.109375 10.5 C -6.554688 10.757812 -5.882812 10.867188 -5.09375 10.828125 L -3.671875 10.734375 L -4.171875 2.484375 L -5.3125 2.5625 C -6.625 2.632812 -7.578125 3.035156 -8.171875 3.765625 C -8.773438 4.503906 -9.035156 5.5625 -8.953125 6.9375 Z M -8.953125 6.9375 "/></g></g></g><g fill="#000000" fill-opacity="1"><g transform="translate(110.979072, 193.967624)"><g/></g></g><g fill="#000000" fill-opacity="1"><g transform="translate(105.777078, 194.044217)"><g><path d="M -6.84375 -1.390625 L -5.828125 8.984375 L -5.75 9 C -5.71875 8.78125 -5.664062 8.429688 -5.59375 7.953125 C -5.519531 7.484375 -5.441406 6.976562 -5.359375 6.4375 C -5.285156 5.90625 -5.203125 5.425781 -5.109375 5 L -3.9375 -0.796875 L -1.5625 -0.3125 L -4.09375 12.15625 L -7.6875 11.421875 L -8.703125 1.28125 L -8.75 1.265625 L -13.828125 10.171875 L -17.421875 9.453125 L -14.890625 -3.015625 L -12.4375 -2.53125 L -13.640625 3.359375 C -13.710938 3.765625 -13.804688 4.222656 -13.921875 4.734375 C -14.035156 5.242188 -14.148438 5.726562 -14.265625 6.1875 C -14.390625 6.644531 -14.484375 6.984375 -14.546875 7.203125 L -14.46875 7.21875 L -9.265625 -1.875 Z M -6.84375 -1.390625 "/></g></g></g><g fill="#000000" fill-opacity="1"><g transform="translate(89.100131, 190.374291)"><g><path d="M -7.9375 4.90625 L -12.3125 8.796875 L -15.015625 7.734375 L -8.234375 2.0625 L -6.40625 -2.546875 L -3.921875 -1.5625 L -5.71875 2.953125 L -4.6875 11.828125 L -7.40625 10.75 Z M -7.9375 4.90625 "/></g></g></g><g fill="#000000" fill-opacity="1"><g transform="translate(78.170123, 185.806551)"><g/></g></g><g fill="#000000" fill-opacity="1"><g transform="translate(73.36155, 183.452556)"><g><path d="M -11.53125 7.546875 C -12.476562 6.898438 -13.1875 6.25 -13.65625 5.59375 C -14.125 4.945312 -14.347656 4.285156 -14.328125 3.609375 C -14.316406 2.941406 -14.070312 2.253906 -13.59375 1.546875 C -13.269531 1.054688 -12.894531 0.695312 -12.46875 0.46875 C -12.039062 0.238281 -11.59375 0.0976562 -11.125 0.046875 C -10.65625 0.00390625 -10.195312 0.0195312 -9.75 0.09375 L -9.734375 -6.609375 L -7.25 -4.921875 L -7.484375 0.8125 L -6.296875 1.625 L -3.5625 -2.40625 L -1.3125 -0.890625 L -8.453125 9.640625 Z M -10.125 5.8125 L -9.453125 6.28125 L -7.53125 3.453125 L -8.25 2.953125 C -8.976562 2.453125 -9.582031 2.21875 -10.0625 2.25 C -10.550781 2.28125 -10.960938 2.535156 -11.296875 3.015625 C -11.628906 3.515625 -11.695312 3.984375 -11.5 4.421875 C -11.300781 4.859375 -10.84375 5.320312 -10.125 5.8125 Z M -10.125 5.8125 "/></g></g></g><g fill="#000000" fill-opacity="1"><g transform="translate(63.259613, 176.477165)"><g><path d="M -6.59375 -6 L -1.171875 -1.078125 L -9.734375 8.328125 L -15.15625 3.40625 L -13.65625 1.765625 L -10.234375 4.875 L -8.359375 2.8125 L -11.5625 -0.09375 L -10.078125 -1.734375 L -6.875 1.171875 L -4.671875 -1.234375 L -8.09375 -4.34375 Z M -6.59375 -6 "/></g></g></g><g fill="#000000" fill-opacity="1"><g transform="translate(55.471996, 169.33634)"><g><path d="M -8.59375 -4.671875 C -8.019531 -5.160156 -7.398438 -5.445312 -6.734375 -5.53125 C -6.066406 -5.613281 -5.394531 -5.484375 -4.71875 -5.140625 C -4.039062 -4.796875 -3.378906 -4.242188 -2.734375 -3.484375 C -2.441406 -3.140625 -2.179688 -2.789062 -1.953125 -2.4375 C -1.722656 -2.082031 -1.53125 -1.722656 -1.375 -1.359375 C -1.21875 -0.992188 -1.085938 -0.617188 -0.984375 -0.234375 L -2.890625 1.375 C -3.078125 0.75 -3.296875 0.117188 -3.546875 -0.515625 C -3.804688 -1.148438 -4.140625 -1.710938 -4.546875 -2.203125 C -4.828125 -2.535156 -5.101562 -2.769531 -5.375 -2.90625 C -5.644531 -3.039062 -5.894531 -3.085938 -6.125 -3.046875 C -6.351562 -3.003906 -6.566406 -2.898438 -6.765625 -2.734375 C -7.003906 -2.535156 -7.140625 -2.273438 -7.171875 -1.953125 C -7.210938 -1.640625 -7.1875 -1.28125 -7.09375 -0.875 C -7.007812 -0.46875 -6.898438 -0.0078125 -6.765625 0.5 C -6.691406 0.820312 -6.613281 1.175781 -6.53125 1.5625 C -6.457031 1.957031 -6.429688 2.367188 -6.453125 2.796875 C -6.472656 3.222656 -6.578125 3.644531 -6.765625 4.0625 C -6.953125 4.488281 -7.265625 4.890625 -7.703125 5.265625 C -8.285156 5.753906 -8.894531 6.035156 -9.53125 6.109375 C -10.164062 6.191406 -10.800781 6.078125 -11.4375 5.765625 C -12.070312 5.460938 -12.675781 4.976562 -13.25 4.3125 C -13.675781 3.800781 -14.023438 3.265625 -14.296875 2.703125 C -14.566406 2.148438 -14.800781 1.53125 -15 0.84375 L -12.84375 0.171875 C -12.65625 0.765625 -12.457031 1.28125 -12.25 1.71875 C -12.050781 2.15625 -11.796875 2.5625 -11.484375 2.9375 C -11.265625 3.195312 -11.035156 3.378906 -10.796875 3.484375 C -10.566406 3.585938 -10.335938 3.625 -10.109375 3.59375 C -9.878906 3.5625 -9.671875 3.46875 -9.484375 3.3125 C -9.253906 3.113281 -9.113281 2.878906 -9.0625 2.609375 C -9.019531 2.335938 -9.039062 2.003906 -9.125 1.609375 C -9.207031 1.210938 -9.328125 0.734375 -9.484375 0.171875 C -9.660156 -0.523438 -9.769531 -1.15625 -9.8125 -1.71875 C -9.863281 -2.289062 -9.796875 -2.816406 -9.609375 -3.296875 C -9.429688 -3.785156 -9.09375 -4.242188 -8.59375 -4.671875 Z M -8.59375 -4.671875 "/></g></g></g><g fill="#000000" fill-opacity="1"><g transform="translate(48.75061, 161.552787)"><g><path d="M -17.09375 -3.515625 L -10.078125 -7.84375 C -9.335938 -8.300781 -8.566406 -8.546875 -7.765625 -8.578125 C -6.960938 -8.617188 -6.179688 -8.414062 -5.421875 -7.96875 C -4.660156 -7.519531 -3.972656 -6.796875 -3.359375 -5.796875 C -2.472656 -4.359375 -2.164062 -3.035156 -2.4375 -1.828125 C -2.707031 -0.628906 -3.441406 0.332031 -4.640625 1.0625 L -11.625 5.375 L -13.03125 3.09375 L -6.40625 -0.984375 C -5.507812 -1.535156 -4.992188 -2.101562 -4.859375 -2.6875 C -4.722656 -3.28125 -4.875 -3.9375 -5.3125 -4.65625 C -5.625 -5.15625 -5.960938 -5.503906 -6.328125 -5.703125 C -6.691406 -5.910156 -7.097656 -5.976562 -7.546875 -5.90625 C -8.003906 -5.84375 -8.515625 -5.640625 -9.078125 -5.296875 L -15.6875 -1.21875 Z M -17.09375 -3.515625 "/></g></g></g><g fill="#000000" fill-opacity="1"><g transform="translate(41.454859, 149.957836)"><g><path d="M -2.46875 -6.53125 L -10.71875 -0.15625 L -10.6875 -0.078125 C -10.46875 -0.171875 -10.140625 -0.3125 -9.703125 -0.5 C -9.265625 -0.695312 -8.796875 -0.898438 -8.296875 -1.109375 C -7.804688 -1.328125 -7.363281 -1.507812 -6.96875 -1.65625 L -1.421875 -3.75 L -0.5625 -1.484375 L -12.46875 3 L -13.765625 -0.4375 L -5.71875 -6.703125 L -5.734375 -6.75 L -15.96875 -6.3125 L -17.265625 -9.71875 L -5.359375 -14.203125 L -4.484375 -11.875 L -10.109375 -9.75 C -10.492188 -9.601562 -10.925781 -9.441406 -11.40625 -9.265625 C -11.894531 -9.097656 -12.363281 -8.941406 -12.8125 -8.796875 C -13.269531 -8.648438 -13.609375 -8.539062 -13.828125 -8.46875 L -13.8125 -8.40625 L -3.328125 -8.84375 Z M -2.46875 -6.53125 "/></g></g></g><g fill="#000000" fill-opacity="1"><g transform="translate(35.715121, 133.831921)"><g><path d="M -1.6875 -8.765625 L -0.296875 -1.5625 L -12.78125 0.84375 L -14.171875 -6.359375 L -12 -6.78125 L -11.125 -2.234375 L -8.390625 -2.765625 L -9.203125 -7 L -7.03125 -7.421875 L -6.21875 -3.1875 L -3 -3.796875 L -3.875 -8.34375 Z M -1.6875 -8.765625 "/></g></g></g><g clip-path="url(#4331166b62)"><g clip-path="url(#ce87e79f1e)"><path fill="#000000" d="M 21.328125 109.367188 L 30.3125 109.367188 L 30.3125 118.347656 L 21.328125 118.347656 Z M 21.328125 109.367188 " fill-opacity="1" fill-rule="nonzero"/></g></g><g clip-path="url(#2479ec39af)"><g clip-path="url(#5c11bf887f)"><path fill="#000000" d="M 195.101562 109.367188 L 204.085938 109.367188 L 204.085938 118.347656 L 195.101562 118.347656 Z M 195.101562 109.367188 " fill-opacity="1" fill-rule="nonzero"/></g></g><g clip-path="url(#e85159aea2)"><path fill="#000000" d="M 113.789062 176.074219 C 113.828125 161.503906 113.828125 146.898438 114.046875 132.332031 C 114.074219 130.503906 114.210938 115.863281 113.878906 114.824219 C 113.199219 119.71875 113.566406 128.058594 113.59375 133.011719 C 113.691406 147.289062 113.738281 161.5625 113.734375 175.839844 C 113.734375 180.910156 113.734375 185.976562 113.734375 191.042969 C 113.753906 186.054688 113.773438 181.0625 113.789062 176.074219 Z M 113.789062 176.074219 " fill-opacity="1" fill-rule="nonzero"/></g><g clip-path="url(#b3c326eb53)"><path fill="#000000" d="M 113.789062 51.632812 C 113.828125 66.199219 113.828125 80.804688 114.046875 95.371094 C 114.074219 97.199219 114.210938 111.839844 113.878906 112.878906 C 113.199219 107.984375 113.566406 99.644531 113.59375 94.691406 C 113.691406 80.414062 113.738281 66.140625 113.734375 51.863281 C 113.734375 46.796875 113.734375 41.726562 113.734375 36.660156 C 113.753906 41.648438 113.773438 46.640625 113.789062 51.632812 Z M 113.789062 51.632812 " fill-opacity="1" fill-rule="nonzero"/></g><g clip-path="url(#bc3271bacf)"><path fill="#000000" d="M 175.851562 114.007812 C 161.285156 114.050781 146.679688 114.046875 132.113281 114.265625 C 130.285156 114.292969 115.644531 114.429688 114.605469 114.097656 C 119.5 113.417969 127.839844 113.785156 132.792969 113.8125 C 147.070312 113.910156 161.34375 113.957031 175.621094 113.953125 C 180.6875 113.953125 185.757812 113.953125 190.824219 113.953125 C 185.835938 113.972656 180.84375 113.992188 175.851562 114.007812 Z M 175.851562 114.007812 " fill-opacity="1" fill-rule="nonzero"/></g><g clip-path="url(#839cfb9c0c)"><path fill="#000000" d="M 51.851562 114.007812 C 66.421875 114.050781 81.027344 114.046875 95.59375 114.265625 C 97.421875 114.292969 112.0625 114.429688 113.101562 114.097656 C 108.207031 113.417969 99.867188 113.785156 94.914062 113.8125 C 80.636719 113.910156 66.363281 113.957031 52.085938 113.953125 C 47.015625 113.953125 41.949219 113.953125 36.882812 113.953125 C 41.871094 113.972656 46.863281 113.992188 51.851562 114.007812 Z M 51.851562 114.007812 " fill-opacity="1" fill-rule="nonzero"/></g><g clip-path="url(#36860af17b)"><path fill="#000000" d="M 113.765625 111.417969 C 113.796875 111.714844 113.875 111.996094 114.003906 112.261719 C 114.132812 112.53125 114.300781 112.769531 114.511719 112.980469 C 114.722656 113.191406 114.960938 113.359375 115.226562 113.488281 C 115.496094 113.617188 115.777344 113.695312 116.074219 113.726562 C 116.78125 113.804688 117.695312 113.855469 118.878906 113.855469 C 117.695312 113.855469 116.78125 113.90625 116.074219 113.984375 C 115.777344 114.015625 115.496094 114.097656 115.226562 114.226562 C 114.960938 114.351562 114.722656 114.523438 114.511719 114.730469 C 114.300781 114.941406 114.132812 115.179688 114.003906 115.449219 C 113.875 115.714844 113.796875 115.996094 113.765625 116.292969 C 113.6875 117 113.636719 117.917969 113.636719 119.097656 C 113.636719 117.917969 113.585938 117 113.507812 116.292969 C 113.476562 115.996094 113.394531 115.714844 113.265625 115.449219 C 113.140625 115.179688 112.96875 114.941406 112.761719 114.730469 C 112.550781 114.523438 112.3125 114.351562 112.042969 114.226562 C 111.777344 114.097656 111.496094 114.015625 111.199219 113.984375 C 110.492188 113.90625 109.574219 113.855469 108.394531 113.855469 C 109.574219 113.855469 110.492188 113.804688 111.199219 113.726562 C 111.496094 113.695312 111.777344 113.617188 112.042969 113.488281 C 112.3125 113.359375 112.550781 113.191406 112.761719 112.980469 C 112.96875 112.769531 113.140625 112.53125 113.265625 112.261719 C 113.394531 111.996094 113.476562 111.714844 113.507812 111.417969 C 113.585938 110.710938 113.636719 109.796875 113.636719 108.613281 C 113.636719 109.796875 113.6875 110.710938 113.765625 111.417969 Z M 113.765625 111.417969 " fill-opacity="1" fill-rule="nonzero"/></g></svg>