<svg xmlns="http://www.w3.org/2000/svg" xmlns:xlink="http://www.w3.org/1999/xlink" width="951" zoomAndPan="magnify" viewBox="0 0 713.25 714.749984" height="953" preserveAspectRatio="xMidYMid meet" version="1.0"><defs><clipPath id="63c16912b6"><path d="M 353 359 L 356.65625 359 L 356.65625 712 L 353 712 Z M 353 359 " clip-rule="nonzero"/></clipPath><clipPath id="79bca10917"><path d="M 353 2 L 356.65625 2 L 356.65625 355 L 353 355 Z M 353 2 " clip-rule="nonzero"/></clipPath><clipPath id="b3c0fb1584"><path d="M 357 356 L 710 356 L 710 358.910156 L 357 358.910156 Z M 357 356 " clip-rule="nonzero"/></clipPath><clipPath id="0cfc7d12a2"><path d="M 2 356 L 355 356 L 355 358.910156 L 2 358.910156 Z M 2 356 " clip-rule="nonzero"/></clipPath><clipPath id="d446bc6f29"><path d="M 331.015625 333.273438 L 378.964844 333.273438 L 378.964844 381.222656 L 331.015625 381.222656 Z M 331.015625 333.273438 " clip-rule="nonzero"/></clipPath></defs><g clip-path="url(#63c16912b6)"><path fill="#ffd935" d="M 355.257812 642.320312 C 355.414062 575.144531 355.402344 507.804688 356.269531 440.644531 C 356.378906 432.214844 356.925781 364.703125 355.613281 359.910156 C 352.910156 382.484375 354.371094 420.933594 354.476562 443.777344 C 354.863281 509.605469 355.046875 575.421875 355.027344 641.25 C 355.03125 664.621094 355.035156 687.988281 355.039062 711.355469 C 355.113281 688.34375 355.183594 665.332031 355.257812 642.320312 Z M 355.257812 642.320312 " fill-opacity="1" fill-rule="nonzero"/></g><g clip-path="url(#79bca10917)"><path fill="#ffd935" d="M 355.257812 72.019531 C 355.414062 139.199219 355.402344 206.539062 356.269531 273.699219 C 356.378906 282.128906 356.925781 349.636719 355.613281 354.433594 C 352.910156 331.855469 354.371094 293.410156 354.476562 270.566406 C 354.863281 204.738281 355.046875 138.921875 355.027344 73.09375 C 355.03125 49.722656 355.035156 26.355469 355.039062 2.984375 C 355.113281 25.996094 355.183594 49.007812 355.257812 72.019531 Z M 355.257812 72.019531 " fill-opacity="1" fill-rule="nonzero"/></g><g clip-path="url(#b3c0fb1584)"><path fill="#ffd935" d="M 640.066406 357.511719 C 572.890625 357.667969 505.550781 357.65625 438.390625 358.523438 C 429.957031 358.632812 362.449219 359.179688 357.65625 357.867188 C 380.230469 355.164062 418.679688 356.628906 441.523438 356.730469 C 507.351562 357.117188 573.167969 357.300781 638.996094 357.285156 C 662.363281 357.289062 685.734375 357.292969 709.101562 357.296875 C 686.089844 357.367188 663.078125 357.441406 640.066406 357.511719 Z M 640.066406 357.511719 " fill-opacity="1" fill-rule="nonzero"/></g><g clip-path="url(#0cfc7d12a2)"><path fill="#ffd935" d="M 71.773438 357.511719 C 138.953125 357.667969 206.289062 357.65625 273.449219 358.523438 C 281.882812 358.632812 349.390625 359.179688 354.183594 357.867188 C 331.609375 355.164062 293.164062 356.628906 270.320312 356.730469 C 204.492188 357.117188 138.675781 357.300781 72.84375 357.285156 C 49.476562 357.289062 26.109375 357.292969 2.738281 357.296875 C 25.75 357.367188 48.761719 357.441406 71.773438 357.511719 Z M 71.773438 357.511719 " fill-opacity="1" fill-rule="nonzero"/></g><g clip-path="url(#d446bc6f29)"><path fill="#ffd935" d="M 355.496094 346.0625 C 355.570312 346.730469 355.699219 347.386719 355.882812 348.03125 C 356.066406 348.679688 356.304688 349.304688 356.59375 349.910156 C 356.886719 350.515625 357.226562 351.09375 357.613281 351.640625 C 358 352.191406 358.433594 352.703125 358.910156 353.175781 C 359.382812 353.652344 359.894531 354.085938 360.445312 354.472656 C 360.992188 354.859375 361.570312 355.199219 362.175781 355.492188 C 362.78125 355.78125 363.40625 356.019531 364.054688 356.203125 C 364.699219 356.386719 365.355469 356.515625 366.023438 356.589844 C 369.257812 356.941406 373.429688 357.171875 378.8125 357.171875 C 373.429688 357.171875 369.257812 357.402344 366.023438 357.753906 C 365.355469 357.828125 364.699219 357.957031 364.054688 358.140625 C 363.40625 358.324219 362.78125 358.5625 362.175781 358.851562 C 361.570312 359.144531 360.992188 359.484375 360.445312 359.871094 C 359.894531 360.261719 359.382812 360.691406 358.910156 361.167969 C 358.433594 361.640625 358 362.152344 357.613281 362.703125 C 357.226562 363.25 356.886719 363.828125 356.59375 364.433594 C 356.304688 365.039062 356.066406 365.664062 355.882812 366.3125 C 355.699219 366.957031 355.570312 367.613281 355.496094 368.28125 C 355.144531 371.515625 354.914062 375.6875 354.914062 381.070312 C 354.914062 375.6875 354.683594 371.515625 354.332031 368.28125 C 354.257812 367.613281 354.128906 366.957031 353.945312 366.3125 C 353.761719 365.664062 353.523438 365.039062 353.234375 364.433594 C 352.941406 363.828125 352.601562 363.25 352.214844 362.703125 C 351.824219 362.152344 351.394531 361.640625 350.917969 361.167969 C 350.445312 360.691406 349.933594 360.261719 349.382812 359.871094 C 348.835938 359.484375 348.257812 359.144531 347.652344 358.851562 C 347.046875 358.5625 346.421875 358.324219 345.773438 358.140625 C 345.128906 357.957031 344.46875 357.828125 343.800781 357.753906 C 340.570312 357.402344 336.398438 357.171875 331.015625 357.171875 C 336.398438 357.171875 340.570312 356.941406 343.800781 356.589844 C 344.46875 356.515625 345.128906 356.386719 345.773438 356.203125 C 346.421875 356.019531 347.046875 355.78125 347.652344 355.492188 C 348.257812 355.199219 348.835938 354.859375 349.382812 354.472656 C 349.933594 354.085938 350.445312 353.652344 350.917969 353.175781 C 351.394531 352.703125 351.824219 352.191406 352.214844 351.640625 C 352.601562 351.09375 352.941406 350.515625 353.234375 349.910156 C 353.523438 349.304688 353.761719 348.679688 353.945312 348.03125 C 354.128906 347.386719 354.257812 346.730469 354.332031 346.0625 C 354.683594 342.828125 354.914062 338.65625 354.914062 333.273438 C 354.914062 338.65625 355.144531 342.828125 355.496094 346.0625 Z M 355.496094 346.0625 " fill-opacity="1" fill-rule="nonzero"/></g></svg>